#!OML:ASF F:\VICON\USERDATA\INSTALL\rory3\rory3.ASF
:FULLY-SPECIFIED
:DEGREES
19
root 0.35008600000000034 18.0834 4.248769999999996 -2.65011 0.20741799999999566 -3.3482400000000014
lfemur 2.744219999999981 -4.546870000000003 -19.1742
ltibia 50.742200000000025
lfoot -35.932500000000005 -23.363999999999972
ltoes -31.961299999999994
rfemur -20.2114 5.729610000000003 27.5883
rtibia 26.525799999999975
rfoot -2.783900000000002 -5.774049999999999
rtoes 5.1375399999999996
lowerback 1.0 -1.2349100000000015 0.05353749999999824
upperback -0.4681920000000005 -1.4895499999999973 2.803519999999999
thorax -5.31771 -0.6973669999999983 3.0933799999999985
lowerneck -16.988499999999995 -2.2031599999999987 -1.4735299999999993
upperneck 26.027499999999996 -2.2874900000000022 -1.5228299999999966
head 11.2617 -1.3843399999999995 -0.6414710000000002
lclavicle -1.4324899999999975e-14 -2.2661499999999974e-14
lhumerus -26.6538 4.226890000000001 81.4927
lradius 26.6992
lwrist 5.833799999999995
lhand -28.1501 28.8355
lfingers 7.12502
lthumb -1.5308899999999985 58.8097
rclavicle -1.4324899999999975e-14 -2.2661499999999974e-14
rhumerus -40.47139999999999 -35.90629999999997 -64.69459999999998
rradius 17.654899999999998
rwrist 13.203600000000002
rhand -17.8702 1.0
rfingers 7.12502
rthumb 8.39563 -6.6280800000000015
20
root 0.29885300000000015 18.1368 4.906719999999998 -3.09005 -0.3521599999999985 -4.585499999999995
lfemur -3.0043000000000104 -2.9970800000000004 -17.0257
ltibia 59.8981
lfoot 15.85310000000004 -19.994099999999964
ltoes -6.706499999999997
rfemur -17.378300000000007 5.408850000000003 29.610699999999998
rtibia 26.821600000000018
rfoot -3.6253200000000083 -4.70373
rtoes 13.769399999999987
lowerback 1.0 -0.944052000000001 1.366069999999999
upperback -0.24480399999999988 -0.9293480000000041 3.0522399999999985
thorax -5.60939 -0.4526789999999992 2.556989999999997
lowerneck -16.5146 -2.25118 -1.3696900000000007
upperneck 24.924599999999998 -2.4159100000000016 -1.4572400000000016
head 10.754300000000002 -1.4197500000000005 -0.6318649999999995
lclavicle 1.767630000000001e-14 3.021529999999996e-14
lhumerus -27.16059999999999 2.974910000000001 82.6112
lradius 25.1943
lwrist 5.469350000000004
lhand -28.899599999999996 22.097199999999997
lfingers 7.12502
lthumb -2.2547499999999983 52.065
rclavicle 1.767630000000001e-14 3.021529999999996e-14
rhumerus -37.91440000000001 -32.525000000000006 -68.24409999999999
rradius 18.583799999999986
rwrist 12.018999999999991
rhand -20.292799999999993 1.0
rfingers 7.12502
rthumb 6.057119999999999 -8.84676
21
root 0.22603973432801172 18.08395850037794 4.265932082821377 -2.862086718990586 -0.7649399451829685 -4.783565789545394
lfemur -6.6788506481717285 -3.865734425204593 -15.815622918290472
ltibia 54.50456635218842
lfoot 14.79484048359329 -16.969558102887753
ltoes -4.66110025296588
rfemur -15.327694398748898 5.790690216566594 31.046058527123062
rtibia 27.66008088197932
rfoot -5.446779623695381 -5.545815400213707
rtoes 12.743660163211038
lowerback 1.0 -0.6871819096143046 2.0504124699486317
upperback -0.2132973872146767 -0.2728833068859574 2.9673896200172996
thorax -5.80706357530703 -0.26262559732896124 1.8997134686473531
lowerneck -16.677333426132943 -2.2924610563889773 -1.5137624086546269
upperneck 24.275686727564093 -2.5985426667648888 -1.1847857795656649
head 10.559891250646961 -1.4578297196420267 -0.5185414316874903
lclavicle 4.73181913014025e-14 4.3132865205342725e-14
lhumerus -28.54679755054949 3.17575663084707 82.54194224284359
lradius 25.16120556090301
lwrist 6.232705010996204
lhand -29.259904167666917 20.24098194949474
lfingers nan
lthumb -2.5282556885215883 50.25065810630351
rclavicle 4.5973383448769074e-14 4.25426580824303e-14
rhumerus -35.7748250381843 -29.358373983329948 -70.67901608258232
rradius 20.71586966704305
rwrist 9.344026841779824
rhand -21.77863233982665 1.0
rfingers nan
rthumb 4.645794143567901 -6.391086746963674
22
root 0.19964763809613278 18.063919023822734 5.675277992431598 -2.6245558132060225 -0.7002281751456417 -4.829564611097094
lfemur -9.14006830637551 -5.9235154529585845 -15.136680003227726
ltibia 46.1868827585581
lfoot 14.540063651999084 -14.344151560599123
ltoes -3.8060799638305665
rfemur -12.68448135353629 5.670609266548908 31.711080824134708
rtibia 27.10236763483416
rfoot -6.75073337603147 -6.433431412323425
rtoes 12.524653000681711
lowerback 1.0 -0.48442573862471433 2.3256644950585112
upperback 0.01230612034889253 0.08090133850607512 2.643046819559661
thorax -5.529225801251117 -0.15336889579867763 1.3483725774924822
lowerneck -16.795119033774487 -2.3875742566884086 -1.197174878381554
upperneck 23.556057313061185 -2.853853600603826 -1.2891173028811393
head 10.27939581715242 -1.5594804582701518 -0.6099287866288271
lclavicle 2.7634482572467803e-14 1.7681787553081248e-14
lhumerus -29.095402259365247 3.733593314028425 82.28336120039764
lradius 24.61364396351251
lwrist 5.481429411870046
lhand -29.195344746334126 23.551461403941524
lfingers nan
lthumb -2.4275087256531656 53.62672949114724
rclavicle 2.7725511060875887e-14 1.8442118000186135e-14
rhumerus -33.474592374681926 -27.441848654738653 -72.35484129417547
rradius 22.47248168570608
rwrist 7.4540923508742845
rhand -22.028376354342186 1.0
rfingers nan
rthumb 4.4288414368071 -4.837689114341755
23
root 0.19156832500807508 18.07138736052115 6.494313898694529 -2.0764911088980473 -0.832210837026284 -5.189679004312643
lfemur -10.416524375048652 -8.331917265542042 -13.911729771083778
ltibia 36.74068120238196
lfoot 14.657156324170021 -12.913685941335064
ltoes 3.469210921315962
rfemur -9.822566087383427 5.4105491177774425 32.243056890249335
rtibia 25.264022110408234
rfoot -7.373564385133761 -6.748546097759073
rtoes 11.012024197300791
lowerback 1.0 -0.14527116051854583 2.559795842216535
upperback -0.10751470651387493 0.6120623032206021 2.378144738770085
thorax -5.150060120779511 0.06805503394398604 0.8203767876827086
lowerneck -16.35542656711067 -2.4750713717813912 -1.1181373539549746
upperneck 23.205130725853824 -3.0591268090274237 -1.245378205661338
head 10.064894184090665 -1.6210703214987825 -0.6070590826725363
lclavicle 7.711396470579622e-15 6.683856588592982e-16
lhumerus -29.979578124574555 4.383921729569364 81.98257259391444
lradius 23.78665326033652
lwrist 4.744240918210333
lhand -28.60093145585448 26.346742445855767
lfingers nan
lthumb -1.8648118680428096 56.421681162137055
rclavicle 6.956258657938981e-15 7.230956338195831e-16
rhumerus -32.31071144437535 -25.553184081142916 -73.10486539473189
rradius 24.498766659108952
rwrist 5.72130904782753
rhand -21.632982423771946 1.0
rfingers nan
rthumb 4.800682921840554 -5.357326733826174
24
root 0.19619267140480268 18.01710090448518 7.359100360528607 -1.488845552351019 -0.9037688984917148 -5.742074348100926
lfemur -11.77291015098244 -10.271228953902144 -12.488916939948115
ltibia 24.713613599508967
lfoot 16.3723518302691 -11.656167982759058
ltoes -3.316519924981674
rfemur -7.394051130943597 5.497016574010528 33.43260655859469
rtibia 23.996557812679974
rfoot -8.131657931876296 -7.364809910565745
rtoes 12.97936792564796
lowerback 1.0 0.05806142027515457 3.0600879127049065
upperback 0.06402800129298947 0.9805458378556384 2.5637910565125406
thorax -4.522974035554684 0.22853342068064963 0.6042462809038458
lowerneck -17.28734489711125 -2.3434226403381206 -1.1253578126611863
upperneck 23.37361454454277 -2.833603743322971 -1.2097973126891797
head 10.30715146462657 -1.5292408926924663 -0.5893747601391406
lclavicle 4.477655236605466e-15 -2.1939090088601547e-15
lhumerus -29.953698276967728 6.101774294674292 81.39633260991802
lradius 21.75734890936804
lwrist 3.760836716344312
lhand -29.42508795230332 18.102640698459673
lfingers nan
lthumb -2.623940272472993 48.24875419636875
rclavicle 3.71902398181893e-15 -1.6685283624541591e-15
rhumerus -30.19189380995981 -24.62109817247164 -73.57486459815216
rradius 25.525464584213132
rwrist 5.058495996603734
rhand -21.548128078712452 1.0
rfingers nan
rthumb 4.9036064607910195 -5.497253735237971
25
root 0.2077699138775757 17.96169277905173 7.783000680642177 -0.8966760990853491 -1.2085855750206138 -5.903038855057289
lfemur -12.889109568297332 -12.193023141371631 -11.417682256076848
ltibia 14.488422205012206
lfoot 16.51780410458273 -11.289510364080645
ltoes -11.40615149317443
rfemur -4.944648744929179 4.5434489681125 33.85430296837602
rtibia 22.580988447206664
rfoot -8.483617954018243 -6.802989286179732
rtoes 8.6103893902138
lowerback 1.0 0.40896024656715235 3.651328809450246
upperback -0.42191303943210423 1.4982677287408444 2.3648359632569873
thorax -4.6601491103308295 0.4721508389281983 0.03432645016613489
lowerneck -16.57519015148998 -2.4253547643845974 -0.9040889955095194
upperneck 23.268997734722554 -3.008044547003552 -1.2965647107890634
head 10.10265724442933 -1.590901134501761 -0.6490406006787321
lclavicle 3.7122226957464305e-14 4.7079789931630025e-14
lhumerus -31.290079652593125 6.293798444805006 81.02230048446035
lradius 21.042230709816895
lwrist 3.2973803972703357
lhand -29.494491697776347 18.861718035163953
lfingers nan
lthumb -2.7263939394800927 49.001026349109054
rclavicle 3.6562493191170005e-14 4.7492727320500576e-14
rhumerus -29.544055986172637 -24.294251109749116 -73.68844937023405
rradius 26.27975946019225
rwrist 5.0629339705919705
rhand -21.723298244572128 1.0
rfingers nan
rthumb 4.764076771998078 -5.550578618471185
26
root 0.2237905157521768 17.953203478826865 7.655340448598488 -0.667663547823053 -1.5178062343503327 -6.248340051038442
lfemur -13.36772957975315 -13.05914304345264 -11.075064003638586
ltibia 8.222975959762799
lfoot 15.73134948683932 -11.012818061593393
ltoes -7.6058874634693865
rfemur -2.1507883775963137 3.662802931648087 34.01334367881211
rtibia 20.99171137105091
rfoot -8.129064799909463 -5.690858944692371
rtoes 8.040568331553985
lowerback 1.0 0.6083967473570515 4.185719196763472
upperback -0.6515188214940205 1.864731679696289 2.35119599627344
thorax -4.840653039353841 0.6688257225596477 -0.3474472154561419
lowerneck -16.54517199799376 -2.402513503095748 -1.0504712675433763
upperneck 23.406555009156797 -3.0300149572068293 -1.1276902603900372
head 10.156467831401015 -1.5849073594732497 -0.5803379384553531
lclavicle -2.5893809187775844e-15 3.302080491530649e-14
lhumerus -31.951421082831658 7.652893747731883 80.3937306240309
lradius 19.672609185292426
lwrist 1.842248943631339
lhand -28.572878927397 18.49842219938725
lfingers nan
lthumb -1.8400348400875088 48.61054435731459
rclavicle -3.4790657933957905e-15 3.353613107797763e-14
rhumerus -28.857176581858862 -24.297745108743936 -73.64927990314568
rradius 26.622295121968893
rwrist 4.89759061862413
rhand -21.370351841564798 1.0
rfingers nan
rthumb 5.125710247043634 -5.402725335812784
27
root 0.2609638393909876 17.903801101205875 8.105515197218288 -0.718317804518485 -1.7451530628552203 -6.085392999569436
lfemur -14.822026320411272 -9.210376710270015 -12.752427606081815
ltibia 8.410831938570528
lfoot 16.20480810195574 -14.625138821752142
ltoes -3.3695822774401605
rfemur -0.4001813344372529 3.7815164329626088 33.54202432212164
rtibia 22.519621837587792
rfoot -7.828958054644213 -5.080026224572574
rtoes 7.403532712198091
lowerback 1.0 0.7804977259279251 4.015922990753225
upperback -0.45930100653712413 2.113888980870139 2.2231662281400277
thorax -4.623855772318737 0.8457832445197031 -0.43708833674972847
lowerneck -16.857210400892185 -2.2635787485858847 -1.041172477423772
upperneck 23.229583186396294 -2.8642051414723326 -1.014438856331625
head 10.177611017521693 -1.4898652863014037 -0.5245040145003276
lclavicle 2.6326849708467903e-14 -5.513494892176228e-15
lhumerus -32.427276576927156 8.839762902213943 79.89126826030716
lradius 18.778937579954963
lwrist 1.072217732004507
lhand -28.74164470897313 20.92866672043766
lfingers nan
lthumb -2.06781786441397 50.93898285895566
rclavicle 2.5661960593765647e-14 -5.0050244264728075e-15
rhumerus -27.8666073484279 -25.132618527515056 -73.57679173743992
rradius 26.652068405391386
rwrist 5.388292524762171
rhand -21.22818249761446 1.0
rfingers nan
rthumb 5.207820398862504 -6.2321792914210885
